<svg  viewBox="0 0 878 878" fill="none" xmlns="http://www.w3.org/2000/svg">
<circle cx="439" cy="439" r="439" fill="white"/>
<path d="M521.5 439.016L676.182 284.334C693.273 267.243 693.273 239.535 676.182 222.471L655.561 201.85C638.465 184.754 610.756 184.754 593.692 201.85L439.016 356.527L284.334 201.818C267.243 184.727 239.535 184.727 222.471 201.818L201.818 222.439C184.727 239.535 184.727 267.243 201.818 284.308L356.527 439.016L201.85 593.692C184.754 610.789 184.754 638.497 201.85 655.561L222.471 676.182C239.562 693.273 267.27 693.273 284.334 676.182L439.016 521.5L593.692 676.182C610.789 693.273 638.497 693.273 655.561 676.182L676.182 655.561C693.273 638.465 693.273 610.756 676.182 593.692L521.5 439.016Z" fill="#EB5500"/>
</svg>
