<svg  viewBox="0 0 878 878" fill="none" xmlns="http://www.w3.org/2000/svg">
<circle cx="439" cy="439" r="439" fill="#FFFBFB"/>
<path d="M571.929 216C541.196 216 513.019 225.739 488.183 244.947C464.372 263.362 448.519 286.816 439.186 303.872C429.853 286.815 414 263.362 390.189 244.947C365.353 225.739 337.176 216 306.442 216C220.677 216 156 286.152 156 379.179C156 479.681 236.689 548.444 358.842 652.54C379.585 670.218 403.097 690.256 427.535 711.626C430.757 714.447 434.894 716 439.186 716C443.478 716 447.615 714.447 450.836 711.627C475.277 690.253 498.788 670.217 519.543 652.529C641.683 548.444 722.372 479.681 722.372 379.179C722.372 286.152 657.695 216 571.929 216Z" fill="#7CDD1B"/>
</svg>
